<?xml version="1.0" encoding="UTF-8" standalone="no"?>
<!-- Created with Inkscape (http://www.inkscape.org/) -->

<svg
   xmlns:dc="http://purl.org/dc/elements/1.1/"
   xmlns:cc="http://creativecommons.org/ns#"
   xmlns:rdf="http://www.w3.org/1999/02/22-rdf-syntax-ns#"
   xmlns:svg="http://www.w3.org/2000/svg"
   xmlns="http://www.w3.org/2000/svg"
   xmlns:sodipodi="http://sodipodi.sourceforge.net/DTD/sodipodi-0.dtd"
   xmlns:inkscape="http://www.inkscape.org/namespaces/inkscape"
   width="85.417"
   height="65.383003"
   viewBox="0 0 22.599914 17.299253"
   version="1.1"
   id="svg1359"
   inkscape:version="0.92.4 (5da689c313, 2019-01-14)"
   sodipodi:docname="cafe-icon.svg">
  <defs
     id="defs1353" />
  <sodipodi:namedview
     id="base"
     pagecolor="#ffffff"
     bordercolor="#666666"
     borderopacity="1.0"
     inkscape:pageopacity="0.0"
     inkscape:pageshadow="2"
     inkscape:zoom="0.35"
     inkscape:cx="690.83816"
     inkscape:cy="693.99391"
     inkscape:document-units="mm"
     inkscape:current-layer="layer1"
     showgrid="false"
     units="px"
     inkscape:window-width="1680"
     inkscape:window-height="987"
     inkscape:window-x="-8"
     inkscape:window-y="-8"
     inkscape:window-maximized="1" />
  <metadata
     id="metadata1356">
    <rdf:RDF>
      <cc:Work
         rdf:about="">
        <dc:format>image/svg+xml</dc:format>
        <dc:type
           rdf:resource="http://purl.org/dc/dcmitype/StillImage" />
        <dc:title></dc:title>
      </cc:Work>
    </rdf:RDF>
  </metadata>
  <g
     inkscape:label="Layer 1"
     inkscape:groupmode="layer"
     id="layer1"
     transform="translate(0,-279.70073)">
    <g
       id="g1284"
       transform="translate(-1381.6621,-437.81096)">
      <path
         sodipodi:nodetypes="cscscssssc"
         style="fill:#e5a276;fill-opacity:1;stroke:#e5a276;stroke-width:0.42962673px;stroke-linecap:butt;stroke-linejoin:miter;stroke-opacity:1"
         d="m 1396.2503,722.36008 c 0,0 -4.0196,2.13581 -4.9027,3.09929 -0.8831,0.96349 -3.6045,2.77991 -3.8939,2.95992 -0.2894,0.17999 -3.2096,3.02919 -3.2675,3.31472 -0.058,0.28555 5.6697,-4.11295 6.1068,-4.59768 0.4372,-0.48472 2.9073,-2.74066 3.2661,-2.75604 0.1023,-0.004 0.3373,-0.14014 0.6291,-0.34063 0.1444,-0.0992 0.3026,-0.21431 0.4655,-0.33717 0.1545,-0.11655 0.3133,-0.24013 0.4683,-0.36379 0.5103,-0.40707 0.9802,-0.81527 1.1283,-0.97862 z"
         id="path1539"
         inkscape:connector-curvature="0" />
      <path
         sodipodi:nodetypes="csssscscscc"
         inkscape:connector-curvature="0"
         id="path1541"
         d="m 1382.6244,728.00516 c 1.6094,-3.22726 3.9927,-4.50412 5.1386,-4.86293 1.1459,-0.35879 3.9272,-1.6053 4.3831,-1.6838 0.1954,-0.0337 0.8089,-0.0596 1.4872,0.0274 0.9047,0.11607 1.9017,0.45927 2.506,0.77336 0.532,0.27655 0.9594,2.05311 0.9247,3.46572 -0.1162,0.62559 -0.2662,1.5737 -0.9133,2.26243 -0.848,0.90259 -1.6925,1.87848 -2.5995,2.85009 -1.2777,1.5571 -2.6173,2.9768 -4.1394,3.24847 -1.621,0.28932 -3.1472,0.16723 -4.5469,0.10393 -3.2778,-0.33618 -2.8307,-4.90969 -2.2405,-6.18468 z"
         style="fill:none;fill-opacity:1;stroke:#e5a276;stroke-width:1.07981789;stroke-linecap:butt;stroke-linejoin:miter;stroke-miterlimit:4;stroke-dasharray:none;stroke-opacity:1" />
      <path
         inkscape:connector-curvature="0"
         style="fill:#e5a276;fill-opacity:1;stroke:#e5a276;stroke-width:0.42962673px;stroke-linecap:butt;stroke-linejoin:miter;stroke-opacity:1"
         d="m 1387.1371,718.49892 c 0.1591,0.16723 0.6639,0.58562 1.2119,1.00234 0.1664,0.1266 0.3373,0.25229 0.5033,0.37162 0.1749,0.12577 0.345,0.24352 0.5002,0.34509 0.3132,0.20527 0.5647,0.34535 0.6746,0.34934 0.1763,0.007 0.8403,0.51197 1.5396,1.08623 0.2671,-0.10167 0.4831,-0.17877 0.5795,-0.19538 0,-5e-5 0,8e-5 0,0 -1.2602,-1.05377 -5.0112,-2.95924 -5.0112,-2.95924 z m 9.9115,6.597 c 0.013,0.21348 0.021,0.42466 0.016,0.62858 -0.017,0.0921 -0.04,0.20266 -0.06,0.30688 1.5917,1.15374 3.1189,2.21057 3.0877,2.06415 -0.051,-0.24159 -2.1229,-2.19677 -3.0433,-2.99961 z"
         id="path1543" />
      <path
         inkscape:connector-curvature="0"
         style="fill:none;fill-opacity:1;stroke:#e5a276;stroke-width:1.07981789;stroke-linecap:butt;stroke-linejoin:miter;stroke-miterlimit:4;stroke-dasharray:none;stroke-opacity:1"
         d="m 1391.3986,718.05188 c -0.308,1.8e-4 -0.6861,0.0156 -1.0839,0.0584 -1.0611,0.11422 -2.231,0.45222 -2.9397,0.76131 -0.6241,0.27216 -1.1256,2.02038 -1.085,3.41053 0.082,0.36804 0.1802,0.8494 0.4061,1.32195 0.4123,-0.22245 0.7791,-0.37173 1.067,-0.46189 1.1459,-0.3588 3.9272,-1.60552 4.3831,-1.68402 0.1955,-0.0337 0.8086,-0.0594 1.4868,0.0276 0.9047,0.11607 1.902,0.45891 2.5062,0.773 0.532,0.27655 0.96,2.05313 0.9252,3.46573 -0.1162,0.62559 -0.2665,1.57399 -0.9136,2.26272 -0.6567,0.69902 -1.3196,1.44489 -2.0028,2.19582 0.3644,0.15128 0.7351,0.26974 1.1177,0.32703 1.9013,0.28473 3.691,0.16424 5.3328,0.10194 3.8444,-0.33084 3.3199,-4.83156 2.6277,-6.08628 -1.8877,-3.17596 -4.6823,-4.43248 -6.0264,-4.78557 -1.344,-0.3531 -4.6066,-1.57917 -5.1413,-1.65643 -0.1146,-0.0165 -0.3519,-0.0321 -0.6599,-0.0318 z"
         id="path1545" />
    </g>
  </g>
</svg>
